<svg width="206" height="76" viewBox="0 0 206 76" fill="none" xmlns="http://www.w3.org/2000/svg">
<path d="M25.4047 36.8019L19.8903 46.5148H15.0949L15 46.4611L22.4045 33.4182C23.4074 34.7063 24.399 35.8267 25.4047 36.8019Z" fill="black"/>
<path d="M47.8917 31.7325C46.5608 32.2555 45.1463 32.6456 43.6415 32.9028L35.6768 18.7075L28.2506 31.7891C27.7544 31.659 27.2534 31.5186 26.7458 31.3707C25.8417 31.1069 24.929 30.8176 24.0417 30.534L35.6993 10L47.8917 31.7325Z" fill="black"/>
<path d="M56.1603 46.4697L56.0804 46.5149H51.2784L46.3872 37.797C46.4727 37.7207 46.5573 37.6425 46.6428 37.5633C47.6824 36.5843 48.6213 35.5798 49.4672 34.5405L56.1603 46.4697Z" fill="black"/>
<path d="M62.2422 45.0167C60.6462 44.1319 59.3943 42.89 58.4854 41.289C57.5756 39.6891 57.1226 37.8865 57.1226 35.8832C57.1226 33.88 57.5756 32.084 58.4854 30.4963C59.3934 28.9095 60.6462 27.6732 62.2422 26.7884C63.8381 25.9037 65.6484 25.4608 67.6739 25.4608C69.439 25.4608 71.0143 25.8066 72.4044 26.4945C73.7917 27.1851 74.8895 28.1924 75.694 29.5201L73.63 30.925C72.9552 29.9102 72.098 29.1488 71.0603 28.6409C70.0208 28.1349 68.8929 27.8805 67.6729 27.8805C66.1926 27.8805 64.8626 28.2113 63.6821 28.8756C62.5007 29.5389 61.5805 30.4821 60.9188 31.7052C60.2562 32.9292 59.9263 34.321 59.9263 35.8814C59.9263 37.4691 60.2562 38.8674 60.9188 40.0773C61.5805 41.2872 62.5016 42.2238 63.6821 42.889C64.8636 43.5524 66.1935 43.8831 67.6729 43.8831C68.892 43.8831 70.0208 43.6372 71.0603 43.1415C72.098 42.6478 72.9552 41.8921 73.63 40.8773L75.694 42.2831C74.8895 43.6099 73.786 44.619 72.3837 45.3078C70.9823 45.9985 69.4117 46.3415 67.6739 46.3415C65.6484 46.3434 63.8381 45.9015 62.2422 45.0167Z" fill="black"/>
<path d="M83.1097 45.0167C81.5138 44.1319 80.2618 42.89 79.353 41.289C78.4431 39.6891 77.9901 37.8865 77.9901 35.8832C77.9901 33.88 78.4431 32.084 79.353 30.4963C80.2609 28.9095 81.5138 27.6732 83.1097 26.7884C84.7057 25.9037 86.5159 25.4608 88.5405 25.4608C90.3065 25.4608 91.8828 25.8066 93.2719 26.4945C94.6592 27.1851 95.757 28.1924 96.5616 29.5201L94.4976 30.925C93.8227 29.9102 92.9646 29.1488 91.9279 28.6409C90.8883 28.1349 89.7595 27.8805 88.5395 27.8805C87.0611 27.8805 85.7292 28.2113 84.5497 28.8756C83.3673 29.5389 82.448 30.4821 81.7845 31.7052C81.1228 32.9292 80.7919 34.321 80.7919 35.8814C80.7919 37.4691 81.1228 38.8674 81.7845 40.0773C82.4471 41.2872 83.3673 42.2238 84.5497 42.889C85.7302 43.5524 87.0611 43.8831 88.5395 43.8831C89.7586 43.8831 90.8883 43.6372 91.9279 43.1415C92.9646 42.6478 93.8227 41.8921 94.4976 40.8773L96.5616 42.2831C95.757 43.6099 94.6536 44.619 93.2513 45.3078C91.8499 45.9985 90.2793 46.3415 88.5395 46.3415C86.5159 46.3434 84.7057 45.9015 83.1097 45.0167Z" fill="black"/>
<path d="M119.376 25.6181V46.1483H116.728V42.4019C116.002 43.6504 115.002 44.62 113.73 45.3106C112.458 46.0004 111.004 46.3443 109.37 46.3443C106.697 46.3443 104.586 45.5961 103.043 44.0998C101.499 42.6035 100.726 40.4108 100.726 37.5228V25.6181H103.49V37.2486C103.49 39.4092 104.022 41.0487 105.087 42.1672C106.15 43.2857 107.668 43.8454 109.641 43.8454C111.796 43.8454 113.496 43.1886 114.743 41.8751C115.988 40.5607 116.612 38.7326 116.612 36.3911V25.6181H119.376Z" fill="black"/>
<path d="M131.581 26.5152C132.866 25.8123 134.456 25.4608 136.35 25.4608V28.1547L135.689 28.1152C133.534 28.1152 131.846 28.7785 130.627 30.1062C129.406 31.4338 128.797 33.2939 128.797 35.6882V46.1483H126.032V25.6181H128.68V29.6369C129.329 28.2593 130.296 27.2181 131.581 26.5152Z" fill="black"/>
<path d="M158.426 36.7426H141.294C141.45 38.8759 142.268 40.6002 143.747 41.9128C145.227 43.2273 147.095 43.8831 149.353 43.8831C150.625 43.8831 151.792 43.656 152.857 43.2009C153.921 42.7467 154.843 42.0758 155.62 41.191L157.178 42.987C156.27 44.08 155.134 44.9139 153.771 45.485C152.409 46.0579 150.909 46.3434 149.274 46.3434C147.171 46.3434 145.309 45.8939 143.688 44.9969C142.065 44.0998 140.799 42.857 139.891 41.2702C138.982 39.6825 138.528 37.8874 138.528 35.8823C138.528 33.879 138.963 32.0849 139.834 30.4972C140.703 28.9104 141.896 27.6732 143.415 26.7884C144.935 25.9036 146.64 25.4617 148.534 25.4617C150.429 25.4617 152.129 25.9036 153.636 26.7884C155.141 27.6732 156.323 28.9029 157.179 30.4765C158.035 32.052 158.463 33.8526 158.463 35.8823L158.426 36.7426ZM143.573 29.7359C142.235 30.9985 141.476 32.6437 141.294 34.6743H155.816C155.634 32.6437 154.875 30.9985 153.539 29.7359C152.202 28.4742 150.534 27.8428 148.535 27.8428C146.562 27.8428 144.909 28.4732 143.573 29.7359Z" fill="black"/>
<path d="M163.779 45.6206C162.259 45.1391 161.074 44.5352 160.215 43.8058L161.461 41.6198C162.319 42.2973 163.395 42.8504 164.693 43.28C165.99 43.7097 167.34 43.9246 168.742 43.9246C170.611 43.9246 171.993 43.6306 172.889 43.0454C173.784 42.4603 174.231 41.6348 174.231 40.5673C174.231 39.8125 173.986 39.2207 173.492 38.792C172.999 38.3623 172.376 38.0373 171.623 37.8158C170.87 37.5944 169.871 37.3805 168.626 37.1713C166.963 36.8594 165.627 36.5409 164.614 36.2149C163.603 35.8898 162.74 35.3358 162.025 34.5565C161.311 33.7754 160.955 32.6965 160.955 31.316C160.955 29.5992 161.669 28.1943 163.096 27.1013C164.523 26.0082 166.508 25.4617 169.053 25.4617C170.376 25.4617 171.7 25.637 173.024 25.9884C174.348 26.3409 175.439 26.8016 176.294 27.3745L175.088 29.5992C173.4 28.427 171.389 27.8419 169.054 27.8419C167.288 27.8419 165.959 28.1538 165.063 28.7785C164.169 29.4032 163.72 30.223 163.72 31.2369C163.72 32.018 163.974 32.6428 164.48 33.1111C164.985 33.5784 165.615 33.9233 166.368 34.1447C167.121 34.3662 168.159 34.5933 169.483 34.8269C171.118 35.1398 172.429 35.4517 173.414 35.7636C174.4 36.0764 175.245 36.6097 175.946 37.3635C176.646 38.1192 176.997 39.1604 176.997 40.4872C176.997 42.2831 176.249 43.7078 174.758 44.7604C173.265 45.8148 171.194 46.3415 168.547 46.3415C166.887 46.3434 165.297 46.104 163.779 45.6206Z" fill="black"/>
<path d="M191.792 44.8998C191.272 45.3672 190.63 45.7262 189.864 45.9731C189.098 46.219 188.3 46.3434 187.469 46.3434C185.549 46.3434 184.068 45.8223 183.032 44.782C181.994 43.7427 181.474 42.2709 181.474 40.3722V27.9587H177.814V25.6181H181.474V21.1292H184.239V25.6181H190.468V27.9597H184.239V40.2167C184.239 41.4389 184.544 42.3689 185.154 43.0077C185.764 43.6447 186.64 43.9641 187.781 43.9641C188.352 43.9641 188.903 43.8727 189.437 43.6909C189.969 43.509 190.43 43.249 190.819 42.9097L191.792 44.8998Z" fill="black"/>
<path d="M51.1691 30.6178C51.0921 30.7045 51.0206 30.7836 50.9595 30.8543C50.9539 30.8609 50.9473 30.8684 50.9407 30.875C50.6917 31.1407 50.4398 31.3961 50.1841 31.6411C50.0666 31.7541 49.9482 31.8635 49.8298 31.9718C49.7583 32.0368 49.686 32.1018 49.6136 32.165C49.544 32.2272 49.4735 32.2875 49.4031 32.3478C49.3354 32.4062 49.2668 32.4637 49.1982 32.5202C49.1324 32.5749 49.0656 32.6295 48.9989 32.6832C48.934 32.7351 48.8692 32.7869 48.8043 32.8378C48.7367 32.8905 48.669 32.9433 48.6004 32.9951C48.4519 33.1072 48.3034 33.2166 48.153 33.3221C47.1031 34.0618 46.0091 34.6441 44.8605 35.0757C44.0071 35.396 43.1236 35.6325 42.2072 35.7871C41.9449 35.8314 41.6808 35.869 41.4158 35.8983C41.3274 35.9086 41.2381 35.9171 41.1489 35.9246C41.0304 35.935 40.9111 35.9435 40.7908 35.951C40.6986 35.9576 40.6065 35.9623 40.5144 35.9652C38.7521 36.0377 36.9052 35.7767 34.9154 35.1784C32.5037 34.4538 30.1464 33.4945 27.8474 32.4995C27.1284 32.1876 26.414 31.8729 25.7063 31.561C25.6612 31.5412 25.6161 31.5214 25.571 31.5016C25.9197 31.609 26.2684 31.7136 26.6171 31.8154C27.088 31.953 27.5532 32.083 28.0138 32.2055C31.7602 33.2024 35.1936 33.7075 38.4748 33.7471C40.3969 33.7706 42.1959 33.633 43.8821 33.3325C45.3812 33.0658 46.792 32.6691 48.121 32.1414C49.1878 31.7183 50.2029 31.2105 51.1691 30.6178Z" fill="#036FDA"/>
<path d="M22.457 30.0279C22.4608 30.0298 22.4637 30.0308 22.4665 30.0327H22.4712L22.457 30.0279Z" fill="#036FDA"/>
<path d="M51.2322 31.2444C50.6306 32.2338 49.9633 33.1836 49.2227 34.1052C48.3598 35.1812 47.3974 36.2168 46.3268 37.225C46.2695 37.2787 46.2122 37.3315 46.1548 37.3843C44.4611 38.9315 42.7364 40.0254 40.8914 40.7265C37.035 42.1842 33.3073 41.7583 29.4951 39.4224C28.1586 38.6073 26.8897 37.6114 25.6406 36.3855C24.6405 35.4055 23.6527 34.2785 22.6517 32.982C22.5135 32.802 22.3735 32.6183 22.2344 32.4317C21.4495 31.3679 20.8433 30.4774 20.2888 29.5672C20.7794 29.7877 21.2212 29.9846 21.6638 30.1787C21.6638 30.1787 21.8039 30.2484 21.9703 30.3201C22.0379 30.3483 22.2428 30.435 22.2889 30.4623L22.3039 30.4689C22.3218 30.4878 22.3396 30.5057 22.3584 30.5236C22.3791 30.5434 22.4017 30.5632 22.4242 30.582C22.444 30.599 22.4637 30.615 22.4844 30.6301C22.5041 30.6461 22.5248 30.6602 22.5455 30.6753C22.5662 30.6894 22.5878 30.7036 22.6084 30.7168C22.6366 30.7347 22.6658 30.7516 22.6949 30.7686C22.7194 30.7818 22.7429 30.795 22.7673 30.8072C22.9374 30.8948 23.1122 30.958 23.2777 31.0183C23.3528 31.0456 23.429 31.0729 23.5023 31.1003C23.5286 31.1116 23.554 31.1219 23.5794 31.1323C23.6123 31.1464 23.6452 31.1606 23.6781 31.1756C24.0296 31.3292 24.3811 31.4828 24.7326 31.6383C24.9855 31.7504 25.2383 31.8616 25.4911 31.9737C26.1942 32.2838 26.9019 32.5966 27.6162 32.9057C29.9425 33.9148 32.3298 34.8882 34.7858 35.6279C36.377 36.1056 37.8809 36.3713 39.3217 36.4288C39.4233 36.4326 39.5248 36.4363 39.6263 36.4382C39.7297 36.4401 39.8321 36.4411 39.9355 36.4411C40.0304 36.4411 40.1254 36.4401 40.2203 36.4382C40.2334 36.4382 40.2457 36.4382 40.2579 36.4373C40.3491 36.4354 40.4412 36.4335 40.5323 36.4288C40.6282 36.425 40.7241 36.4203 40.8199 36.4137C41.0671 36.3986 41.3134 36.377 41.5578 36.3487C41.6189 36.3412 41.68 36.3336 41.741 36.3261C41.9243 36.3035 42.1067 36.2762 42.2881 36.246C43.258 36.0811 44.1914 35.8295 45.0909 35.4865C46.0091 35.1379 46.8936 34.6931 47.747 34.1504C47.9444 34.026 48.1399 33.896 48.3344 33.7603C48.404 33.7122 48.4726 33.6632 48.5412 33.6142C48.6145 33.5615 48.6878 33.5087 48.7602 33.4541C48.7837 33.4371 48.8063 33.4201 48.8288 33.4032V33.4022C48.8702 33.3721 48.9106 33.341 48.952 33.3099C49.0873 33.2053 49.2227 33.0988 49.3571 32.9895C49.4266 32.933 49.4962 32.8755 49.5648 32.818C49.6362 32.7577 49.7076 32.6974 49.7781 32.6362C49.8514 32.573 49.9248 32.509 49.9971 32.4439C50.0723 32.377 50.1475 32.3092 50.2218 32.2404C50.3073 32.1613 50.3919 32.0821 50.4765 32.0011C50.516 31.9643 50.5545 31.9266 50.593 31.888C50.8083 31.6816 51.0207 31.4668 51.2322 31.2444Z" fill="#004AB4"/>
<path d="M89.2324 60.1858C89.7014 60.5778 89.9364 61.1167 89.9364 61.8037C89.9364 62.4906 89.7014 63.0305 89.2324 63.4215C88.7634 63.8135 88.1205 64.0095 87.3028 64.0095H85.7426V65.9261H84.8412V59.5987H87.3028C88.1196 59.5987 88.7634 59.7947 89.2324 60.1858ZM88.583 62.8571C88.8837 62.6131 89.0341 62.2616 89.0341 61.8037C89.0341 61.3457 88.8837 60.9942 88.583 60.7502C88.2822 60.5061 87.8461 60.3837 87.2756 60.3837H85.7426V63.2218H87.2756C87.8461 63.2237 88.2822 63.1012 88.583 62.8571Z" fill="#0F54B7"/>
<path d="M95.4896 65.9256L94.1277 63.9817C93.9595 63.9939 93.8269 63.9996 93.7311 63.9996H92.1708V65.9247H91.2695V59.5973H93.7311C94.5488 59.5973 95.1917 59.7933 95.6607 60.1853C96.1297 60.5773 96.3647 61.1162 96.3647 61.8032C96.3647 62.2913 96.2444 62.7068 96.0037 63.0507C95.7631 63.3947 95.4201 63.6444 94.9755 63.8008L96.4728 65.9247H95.4896V65.9256ZM95.0122 62.8613C95.3129 62.6145 95.4633 62.2621 95.4633 61.8041C95.4633 61.3462 95.3129 60.9947 95.0122 60.7506C94.7114 60.5066 94.2753 60.3841 93.7048 60.3841H92.1718V63.2316H93.7048C94.2753 63.2316 94.7114 63.1082 95.0122 62.8613Z" fill="#0F54B7"/>
<path d="M102.405 65.1388V65.9256H97.8251V59.5982H102.279V60.385H98.7264V62.3289H101.892V63.0978H98.7274V65.1407H102.405V65.1388Z" fill="#0F54B7"/>
<path d="M104.962 65.5779C104.453 65.2971 104.056 64.9117 103.767 64.4208C103.479 63.9298 103.335 63.3767 103.335 62.7624C103.335 62.148 103.479 61.5949 103.767 61.104C104.056 60.6131 104.455 60.2267 104.967 59.9469C105.477 59.667 106.048 59.5266 106.68 59.5266C107.173 59.5266 107.624 59.6095 108.033 59.7754C108.441 59.9412 108.79 60.1871 109.079 60.5122L108.492 61.0814C108.018 60.581 107.425 60.3313 106.716 60.3313C106.247 60.3313 105.823 60.4368 105.444 60.6479C105.065 60.859 104.769 61.1492 104.556 61.5205C104.343 61.8908 104.235 62.3054 104.235 62.7633C104.235 63.2213 104.342 63.6359 104.556 64.0062C104.769 64.3765 105.065 64.6676 105.444 64.8787C105.823 65.0898 106.247 65.1953 106.716 65.1953C107.419 65.1953 108.011 64.9418 108.492 64.4358L109.079 65.005C108.79 65.3301 108.44 65.5779 108.028 65.7465C107.616 65.9152 107.164 66 106.671 66C106.04 65.9981 105.47 65.8577 104.962 65.5779Z" fill="#0F54B7"/>
<path d="M110.368 59.5982H111.27V65.9256H110.368V59.5982Z" fill="#0F54B7"/>
<path d="M113.628 65.7767C113.186 65.6288 112.839 65.4375 112.587 65.2029L112.92 64.498C113.161 64.7148 113.469 64.891 113.844 65.0267C114.22 65.1623 114.606 65.2302 115.003 65.2302C115.526 65.2302 115.917 65.1416 116.175 64.9635C116.434 64.7854 116.563 64.5489 116.563 64.254C116.563 64.0373 116.493 63.8611 116.352 63.7254C116.211 63.5897 116.036 63.486 115.829 63.4135C115.621 63.3409 115.329 63.2599 114.95 63.1694C114.476 63.0554 114.092 62.9405 113.801 62.8255C113.51 62.7106 113.26 62.5344 113.053 62.2969C112.846 62.0585 112.742 61.7381 112.742 61.3339C112.742 60.9966 112.83 60.6922 113.008 60.4208C113.185 60.1495 113.454 59.9328 113.814 59.7697C114.175 59.6067 114.622 59.5257 115.158 59.5257C115.53 59.5257 115.898 59.5737 116.258 59.6708C116.619 59.7669 116.928 59.9054 117.186 60.0863L116.888 60.8091C116.624 60.6404 116.341 60.5122 116.041 60.4246C115.74 60.3379 115.446 60.2936 115.157 60.2936C114.646 60.2936 114.263 60.3869 114.008 60.5744C113.752 60.761 113.624 61.0022 113.624 61.2972C113.624 61.5139 113.697 61.6901 113.84 61.8258C113.984 61.9615 114.164 62.067 114.377 62.1424C114.59 62.2177 114.881 62.2978 115.247 62.3817C115.722 62.4967 116.104 62.6107 116.392 62.7256C116.681 62.8406 116.929 63.0149 117.136 63.2495C117.343 63.4842 117.447 63.8008 117.447 64.1984C117.447 64.5301 117.357 64.8325 117.176 65.1067C116.996 65.3809 116.722 65.5977 116.356 65.7578C115.989 65.918 115.538 65.9972 115.003 65.9972C114.527 65.9981 114.07 65.9246 113.628 65.7767Z" fill="#0F54B7"/>
<path d="M118.762 59.5982H119.664V65.9256H118.762V59.5982Z" fill="#0F54B7"/>
<path d="M122.685 65.5779C122.173 65.2971 121.772 64.9108 121.481 64.4161C121.189 63.9223 121.044 63.3711 121.044 62.7614C121.044 62.1527 121.189 61.6015 121.481 61.1078C121.772 60.614 122.173 60.2258 122.685 59.9459C123.195 59.6661 123.769 59.5257 124.406 59.5257C125.038 59.5257 125.609 59.6661 126.12 59.9459C126.63 60.2258 127.031 60.6121 127.319 61.1031C127.608 61.594 127.752 62.1471 127.752 62.7614C127.752 63.3758 127.608 63.9289 127.319 64.4198C127.031 64.9108 126.631 65.2971 126.12 65.5769C125.609 65.8568 125.038 65.9972 124.406 65.9972C123.77 65.9981 123.196 65.8577 122.685 65.5779ZM125.656 64.8768C126.025 64.6658 126.317 64.3756 126.531 64.0043C126.744 63.634 126.851 63.2194 126.851 62.7614C126.851 62.3035 126.744 61.8889 126.531 61.5186C126.317 61.1483 126.026 60.8571 125.656 60.646C125.286 60.435 124.87 60.3294 124.406 60.3294C123.943 60.3294 123.524 60.435 123.149 60.646C122.773 60.8571 122.479 61.1473 122.265 61.5186C122.052 61.8889 121.945 62.3035 121.945 62.7614C121.945 63.2194 122.051 63.634 122.265 64.0043C122.479 64.3746 122.773 64.6658 123.149 64.8768C123.525 65.0879 123.944 65.1934 124.406 65.1934C124.87 65.1934 125.286 65.0879 125.656 64.8768Z" fill="#0F54B7"/>
<path d="M134.56 59.5982V65.9256H133.821L130.034 61.2067V65.9256H129.133V59.5982H129.872L133.659 64.3171V59.5982H134.56Z" fill="#0F54B7"/>
<path d="M138.879 59.5982H141.539C142.206 59.5982 142.799 59.7311 143.315 59.9959C143.832 60.2607 144.234 60.6328 144.52 61.1125C144.805 61.5911 144.948 62.1414 144.948 62.7624C144.948 63.3833 144.805 63.9327 144.52 64.4123C144.234 64.8919 143.832 65.2641 143.315 65.5289C142.799 65.7937 142.206 65.9265 141.539 65.9265H138.879V59.5982ZM141.485 65.1388C141.996 65.1388 142.445 65.0398 142.832 64.8401C143.221 64.6413 143.519 64.3624 143.73 64.0043C143.941 63.6453 144.046 63.2316 144.046 62.7614C144.046 62.2912 143.941 61.8776 143.73 61.5186C143.519 61.1605 143.221 60.8816 142.832 60.6828C142.444 60.484 141.995 60.385 141.485 60.385H139.781V65.1397H141.485V65.1388Z" fill="#0F54B7"/>
<path d="M150.908 65.1388V65.9256H146.328V59.5982H150.782V60.385H147.229V62.3289H150.394V63.0978H147.229V65.1407H150.908V65.1388Z" fill="#0F54B7"/>
<path d="M152.369 59.5982H153.27V65.1397H156.687V65.9265H152.369V59.5982V59.5982Z" fill="#0F54B7"/>
<path d="M157.724 59.5982H158.626V65.9256H157.724V59.5982Z" fill="#0F54B7"/>
<path d="M166.002 59.5982L163.234 65.9256H162.341L159.564 59.5982H160.537L162.809 64.7958L165.1 59.5982H166.002Z" fill="#0F54B7"/>
<path d="M171.52 65.1388V65.9256H166.94V59.5982H171.394V60.385H167.841V62.3289H171.006V63.0978H167.841V65.1407H171.52V65.1388Z" fill="#0F54B7"/>
<path d="M177.201 65.9256L175.839 63.9817C175.671 63.9939 175.538 63.9996 175.442 63.9996H173.882V65.9247H172.981V59.5973H175.442C176.26 59.5973 176.903 59.7933 177.372 60.1853C177.841 60.5773 178.076 61.1162 178.076 61.8032C178.076 62.2913 177.955 62.7068 177.715 63.0507C177.474 63.3947 177.131 63.6444 176.687 63.8008L178.184 65.9247H177.201V65.9256ZM176.723 62.8613C177.024 62.6145 177.174 62.2621 177.174 61.8041C177.174 61.3462 177.024 60.9947 176.723 60.7506C176.422 60.5066 175.986 60.3841 175.416 60.3841H173.883V63.2316H175.416C175.986 63.2316 176.422 63.1082 176.723 62.8613Z" fill="#0F54B7"/>
<path d="M184.117 65.1388V65.9256H179.536V59.5982H183.991V60.385H180.438V62.3289H183.602V63.0978H180.438V65.1407H184.117V65.1388Z" fill="#0F54B7"/>
<path d="M185.577 59.5982H188.237C188.904 59.5982 189.497 59.7311 190.013 59.9959C190.53 60.2607 190.932 60.6328 191.217 61.1125C191.503 61.5911 191.646 62.1414 191.646 62.7624C191.646 63.3833 191.503 63.9327 191.217 64.4123C190.932 64.8919 190.53 65.2641 190.013 65.5289C189.497 65.7937 188.904 65.9265 188.237 65.9265H185.577V59.5982ZM188.183 65.1388C188.695 65.1388 189.144 65.0398 189.531 64.8401C189.919 64.6413 190.217 64.3624 190.429 64.0043C190.639 63.6453 190.745 63.2316 190.745 62.7614C190.745 62.2912 190.639 61.8776 190.429 61.5186C190.218 61.1605 189.919 60.8816 189.531 60.6828C189.143 60.484 188.694 60.385 188.183 60.385H186.479V65.1397H188.183V65.1388Z" fill="#0F54B7"/>
</svg>
